<?xml version="1.0" encoding="utf-8"?>
<!-- Generator: Adobe Illustrator 24.1.1, SVG Export Plug-In . SVG Version: 6.00 Build 0)  -->
<svg version="1.1" id="Capa_1" xmlns="http://www.w3.org/2000/svg" xmlns:xlink="http://www.w3.org/1999/xlink" x="0px" y="0px"
	 viewBox="0 0 150 150" style="enable-background:new 0 0 150 150;" xml:space="preserve">
<style type="text/css">
	.st0{fill:#CECECE;}
</style>
<g>
	<g>
		<path class="st0" d="M11.23,9.63l-1,0.04c0.1,2.65,0.27,5.32,0.52,7.94l1-0.09C11.51,14.91,11.33,12.26,11.23,9.63z"/>
	</g>
	<g>
		<path class="st0" d="M71.38,118.16c2.22,1.46,4.5,2.87,6.78,4.19l0.5-0.87c-2.27-1.31-4.53-2.71-6.73-4.16L71.38,118.16z"/>
	</g>
	<g>
		<path class="st0" d="M11.32,22.55c0.35,2.62,0.78,5.27,1.27,7.86l0.98-0.19c-0.5-2.57-0.92-5.2-1.27-7.8L11.32,22.55z"/>
	</g>
	<g>
		<path class="st0" d="M94.24,130.28c2.45,1.01,4.96,1.96,7.46,2.83l0.33-0.95c-2.48-0.86-4.97-1.8-7.4-2.8L94.24,130.28z"/>
	</g>
	<g>
		<path class="st0" d="M51.23,101.95c1.9,1.85,3.87,3.66,5.86,5.39l0.66-0.76c-1.98-1.71-3.94-3.51-5.82-5.35L51.23,101.95z"/>
	</g>
	<g>
		<path class="st0" d="M60.92,110.53c2.06,1.66,4.2,3.28,6.35,4.81l0.58-0.81c-2.14-1.52-4.26-3.13-6.3-4.78L60.92,110.53z"/>
	</g>
	<g>
		<path class="st0" d="M131.78,139.77c2.62,0.27,5.29,0.48,7.94,0.6l0.05-1c-2.63-0.12-5.28-0.32-7.88-0.59L131.78,139.77z"/>
	</g>
	<g>
		<path class="st0" d="M118.99,137.81c2.59,0.52,5.23,0.98,7.85,1.35l0.14-0.99c-2.59-0.37-5.21-0.82-7.79-1.34L118.99,137.81z"/>
	</g>
	<g>
		<path class="st0" d="M106.45,134.64c2.53,0.77,5.11,1.47,7.68,2.09l0.23-0.97c-2.55-0.61-5.11-1.31-7.63-2.08L106.45,134.64z"/>
	</g>
	<g>
		<path class="st0" d="M82.52,124.76c2.34,1.24,4.75,2.43,7.15,3.53l0.42-0.91c-2.38-1.09-4.77-2.27-7.1-3.5L82.52,124.76z"/>
	</g>
	<g>
		<path class="st0" d="M17.14,47.73c0.84,2.51,1.76,5.02,2.75,7.47l0.93-0.37c-0.98-2.43-1.9-4.93-2.73-7.42L17.14,47.73z"/>
	</g>
	<g>
		<path class="st0" d="M21.82,59.78c1.07,2.41,2.23,4.82,3.44,7.17l0.89-0.46c-1.2-2.33-2.35-4.72-3.42-7.11L21.82,59.78z"/>
	</g>
	<g>
		<path class="st0" d="M13.63,35.28c0.59,2.57,1.27,5.16,2.02,7.7l0.96-0.28c-0.74-2.52-1.42-5.09-2-7.64L13.63,35.28z"/>
	</g>
	<g>
		<path class="st0" d="M27.63,71.31c1.3,2.3,2.68,4.59,4.11,6.81l0.84-0.54c-1.42-2.2-2.79-4.48-4.08-6.76L27.63,71.31z"/>
	</g>
	<g>
		<path class="st0" d="M42.4,92.49c1.71,2.01,3.5,4,5.33,5.92l0.72-0.69c-1.81-1.9-3.59-3.88-5.29-5.87L42.4,92.49z"/>
	</g>
	<g>
		<path class="st0" d="M34.51,82.25c1.51,2.17,3.11,4.32,4.74,6.39l0.79-0.62c-1.62-2.06-3.21-4.19-4.71-6.34L34.51,82.25z"/>
	</g>
</g>
</svg>
