<?xml version="1.0" encoding="utf-8"?>
<!-- Generator: Adobe Illustrator 24.1.1, SVG Export Plug-In . SVG Version: 6.00 Build 0)  -->
<svg version="1.1" id="Capa_1" xmlns="http://www.w3.org/2000/svg" xmlns:xlink="http://www.w3.org/1999/xlink" x="0px" y="0px"
	 viewBox="0 0 110 110" style="enable-background:new 0 0 110 110;" xml:space="preserve">
<style type="text/css">
	.st0{fill:#CECECE;}
</style>
<g>
	<g>
		<path class="st0" d="M103.8,10.6l0.8,0.1c0.2-2,0.3-4.1,0.4-6.1l-0.8,0C104.2,6.6,104,8.6,103.8,10.6z"/>
	</g>
	<g>
		<path class="st0" d="M57.4,87.7c-1.7,1.1-3.4,2.2-5.2,3.2l0.4,0.7c1.8-1,3.5-2.1,5.2-3.2L57.4,87.7z"/>
	</g>
	<g>
		<path class="st0" d="M103.4,14.4c-0.3,2-0.6,4-1,6l0.8,0.1c0.4-2,0.7-4,1-6.1L103.4,14.4z"/>
	</g>
	<g>
		<path class="st0" d="M39.8,97c-1.9,0.8-3.8,1.5-5.7,2.2l0.3,0.7c1.9-0.7,3.9-1.4,5.8-2.2L39.8,97z"/>
	</g>
	<g>
		<path class="st0" d="M72.8,75.2c-1.5,1.4-3,2.8-4.5,4.1l0.5,0.6c1.5-1.3,3.1-2.7,4.5-4.2L72.8,75.2z"/>
	</g>
	<g>
		<path class="st0" d="M65.4,81.8c-1.6,1.3-3.2,2.5-4.9,3.7l0.4,0.6c1.7-1.2,3.3-2.4,4.9-3.7L65.4,81.8z"/>
	</g>
	<g>
		<path class="st0" d="M11.1,104.2c-2,0.2-4.1,0.4-6.1,0.5l0,0.8c2-0.1,4.1-0.3,6.1-0.5L11.1,104.2z"/>
	</g>
	<g>
		<path class="st0" d="M20.9,102.7c-2,0.4-4,0.7-6,1l0.1,0.8c2-0.3,4.1-0.6,6.1-1L20.9,102.7z"/>
	</g>
	<g>
		<path class="st0" d="M30.5,100.3c-1.9,0.6-3.9,1.1-5.9,1.6l0.2,0.7c2-0.5,4-1,5.9-1.6L30.5,100.3z"/>
	</g>
	<g>
		<path class="st0" d="M48.8,92.7c-1.8,0.9-3.6,1.9-5.5,2.7l0.3,0.7c1.9-0.8,3.7-1.8,5.5-2.7L48.8,92.7z"/>
	</g>
	<g>
		<path class="st0" d="M98.9,33.7c-0.6,1.9-1.4,3.9-2.1,5.7l0.7,0.3c0.8-1.9,1.5-3.8,2.1-5.8L98.9,33.7z"/>
	</g>
	<g>
		<path class="st0" d="M95.4,42.9c-0.8,1.8-1.7,3.7-2.6,5.5l0.7,0.4c0.9-1.8,1.8-3.7,2.7-5.5L95.4,42.9z"/>
	</g>
	<g>
		<path class="st0" d="M101.6,24.2c-0.4,2-1,4-1.5,5.9l0.7,0.2c0.6-2,1.1-4,1.6-5.9L101.6,24.2z"/>
	</g>
	<g>
		<path class="st0" d="M90.9,51.8c-1,1.8-2.1,3.5-3.1,5.2l0.6,0.4c1.1-1.7,2.2-3.5,3.2-5.3L90.9,51.8z"/>
	</g>
	<g>
		<path class="st0" d="M79.6,68c-1.3,1.5-2.7,3.1-4.1,4.5l0.6,0.5c1.4-1.5,2.8-3,4.1-4.6L79.6,68z"/>
	</g>
	<g>
		<path class="st0" d="M85.6,60.2c-1.2,1.7-2.4,3.3-3.6,4.9l0.6,0.5c1.3-1.6,2.5-3.3,3.7-4.9L85.6,60.2z"/>
	</g>
</g>
</svg>
