<?xml version="1.0" encoding="utf-8"?>
<!-- Generator: Adobe Illustrator 24.1.1, SVG Export Plug-In . SVG Version: 6.00 Build 0)  -->
<svg version="1.1" id="Capa_1" xmlns="http://www.w3.org/2000/svg" xmlns:xlink="http://www.w3.org/1999/xlink" x="0px" y="0px"
	 viewBox="0 0 150 150" style="enable-background:new 0 0 150 150;" xml:space="preserve">
<style type="text/css">
	.st0{fill:#CECECE;}
</style>
<g>
	<g>
		<path class="st0" d="M11.2,9.6l-1,0c0.1,2.6,0.3,5.3,0.5,7.9l1-0.1C11.5,14.9,11.3,12.3,11.2,9.6z"/>
	</g>
	<g>
		<path class="st0" d="M71.4,118.2c2.2,1.5,4.5,2.9,6.8,4.2l0.5-0.9c-2.3-1.3-4.5-2.7-6.7-4.2L71.4,118.2z"/>
	</g>
	<g>
		<path class="st0" d="M11.3,22.5c0.4,2.6,0.8,5.3,1.3,7.9l1-0.2c-0.5-2.6-0.9-5.2-1.3-7.8L11.3,22.5z"/>
	</g>
	<g>
		<path class="st0" d="M94.2,130.3c2.4,1,5,2,7.5,2.8l0.3-0.9c-2.5-0.9-5-1.8-7.4-2.8L94.2,130.3z"/>
	</g>
	<g>
		<path class="st0" d="M51.2,101.9c1.9,1.8,3.9,3.7,5.9,5.4l0.7-0.8c-2-1.7-3.9-3.5-5.8-5.3L51.2,101.9z"/>
	</g>
	<g>
		<path class="st0" d="M60.9,110.5c2.1,1.7,4.2,3.3,6.3,4.8l0.6-0.8c-2.1-1.5-4.3-3.1-6.3-4.8L60.9,110.5z"/>
	</g>
	<g>
		<path class="st0" d="M131.8,139.8c2.6,0.3,5.3,0.5,7.9,0.6l0.1-1c-2.6-0.1-5.3-0.3-7.9-0.6L131.8,139.8z"/>
	</g>
	<g>
		<path class="st0" d="M119,137.8c2.6,0.5,5.2,1,7.8,1.4l0.1-1c-2.6-0.4-5.2-0.8-7.8-1.3L119,137.8z"/>
	</g>
	<g>
		<path class="st0" d="M106.4,134.6c2.5,0.8,5.1,1.5,7.7,2.1l0.2-1c-2.6-0.6-5.1-1.3-7.6-2.1L106.4,134.6z"/>
	</g>
	<g>
		<path class="st0" d="M82.5,124.8c2.3,1.2,4.8,2.4,7.2,3.5l0.4-0.9c-2.4-1.1-4.8-2.3-7.1-3.5L82.5,124.8z"/>
	</g>
	<g>
		<path class="st0" d="M17.1,47.7c0.8,2.5,1.8,5,2.8,7.5l0.9-0.4c-1-2.4-1.9-4.9-2.7-7.4L17.1,47.7z"/>
	</g>
	<g>
		<path class="st0" d="M21.8,59.8c1.1,2.4,2.2,4.8,3.4,7.2l0.9-0.5c-1.2-2.3-2.4-4.7-3.4-7.1L21.8,59.8z"/>
	</g>
	<g>
		<path class="st0" d="M13.6,35.3c0.6,2.6,1.3,5.2,2,7.7l1-0.3c-0.7-2.5-1.4-5.1-2-7.6L13.6,35.3z"/>
	</g>
	<g>
		<path class="st0" d="M27.6,71.3c1.3,2.3,2.7,4.6,4.1,6.8l0.8-0.5c-1.4-2.2-2.8-4.5-4.1-6.8L27.6,71.3z"/>
	</g>
	<g>
		<path class="st0" d="M42.4,92.5c1.7,2,3.5,4,5.3,5.9l0.7-0.7c-1.8-1.9-3.6-3.9-5.3-5.9L42.4,92.5z"/>
	</g>
	<g>
		<path class="st0" d="M34.5,82.3c1.5,2.2,3.1,4.3,4.7,6.4L40,88c-1.6-2.1-3.2-4.2-4.7-6.3L34.5,82.3z"/>
	</g>
</g>
</svg>
